#!OML:ASF F:\VICON\USERDATA\INSTALL\rory3\rory3.ASF
:FULLY-SPECIFIED
:DEGREES
19
root 0.7204319999999996 17.9347 -20.069900000000032 -3.0542899999999995 0.3594319999999973 -2.0226099999999994
lfemur 4.021189999999981 -1.7682900000000008 -19.1673
ltibia 48.0158
lfoot 13.378599999999981 -20.669300000000003
ltoes -1.9389200000000006
rfemur -23.34869999999999 6.229550000000003 25.0737
rtibia 31.562500000000007
rfoot -3.707689999999996 -4.325820000000002
rtoes 5.989839999999998
lowerback 1.0 -1.6737299999999953 0.08508780000000005
upperback -0.4579860000000009 -2.0088899999999947 2.898700000000002
thorax -7.034169999999997 -0.9286920000000023 3.3751899999999995
lowerneck -16.6502 -2.2694799999999997 -2.373030000000001
upperneck 23.4671 -2.2126300000000017 -1.2698100000000023
head 10.2669 -1.3899000000000006 -0.3540689999999998
lclavicle -2.124510000000002e-14 -2.623959999999998e-14
lhumerus -27.232 1.2594900000000009 80.8946
lradius 30.871300000000012
lwrist 5.731379999999995
lhand -31.355300000000003 21.9743
lfingers 7.12502
lthumb -4.626200000000009 51.9038
rclavicle -2.124510000000002e-14 -2.623959999999998e-14
rhumerus -40.455 -33.665199999999984 -64.53200000000001
rradius 17.89770000000001
rwrist 14.038899999999988
rhand -18.2134 1.0
rfingers 7.12502
rthumb 8.06437 -8.693880000000002
20
root 0.6654139999999998 17.9914 -19.52909999999998 -3.0148400000000004 0.20052200000000298 -3.51458
lfemur -0.44853500000000857 -1.5792599999999994 -16.857800000000005
ltibia 55.12499999999997
lfoot 17.257099999999955 -22.161900000000028
ltoes 7.361140000000008
rfemur -21.005100000000002 6.552960000000001 27.2266
rtibia 30.805300000000006
rfoot -4.838580000000009 -4.738829999999998
rtoes 5.983969999999996
lowerback 1.0 -1.7876699999999972 1.2992999999999995
upperback -0.708095999999999 -1.9568999999999968 3.3999200000000025
thorax -7.149409999999998 -0.9361749999999989 3.208279999999995
lowerneck -15.2038 -2.219770000000001 -2.8219300000000027
upperneck 23.1316 -2.1449000000000034 -1.004190000000002
head 9.88084 -1.3647799999999994 -0.15508
lclavicle 5.360970000000013e-15 1.1927099999999996e-14
lhumerus -28.719000000000005 2.373459999999999 81.4137
lradius 30.348700000000008
lwrist 5.627920000000003
lhand -29.4854 25.8192
lfingers 7.12502
lthumb -2.820479999999998 55.7803
rclavicle 5.360970000000013e-15 1.1927099999999996e-14
rhumerus -39.314400000000006 -31.160399999999985 -66.12129999999999
rradius 17.84509999999998
rwrist 14.10479999999999
rhand -19.289099999999998 1.0
rfingers 7.12502
rthumb 7.026049999999998 -8.691749999999999
21
root 0.4835790842131208 17.98506398047888 9.690957072461476 -1.472799487039825 -3.1160026722807235 -8.447849306328319
lfemur -8.772742546560377 -0.5838202213674308 -10.557261137725769
ltibia 63.35354536588453
lfoot 1.3939276445879996 -5.044189492432974
ltoes -7.50760624454878
rfemur -8.00058035697312 6.632592968328573 34.27419332640929
rtibia 19.770703067079147
rfoot -4.425097091828556 -9.940630376523998
rtoes 7.956752590747422
lowerback 1.0 0.3276648285877024 3.7543272975668214
upperback 0.3044792796685407 1.4125182184874499 2.5303216619887072
thorax -5.721352985676804 0.6526890591768013 0.9383152424550991
lowerneck -15.757251593178115 -2.600899738122248 -1.7107182893454487
upperneck 24.853100027362917 -3.0191867406302415 -1.2075307113285896
head 10.643749177833579 -1.6574050355035268 -0.5643744673273529
lclavicle -1.9609768199412886e-15 -2.425160662278459e-16
lhumerus -30.48272902995977 2.612083473076562 82.36369920762391
lradius 23.685285765500044
lwrist 4.943611790381905
lhand -27.590852586059583 24.861792895480942
lfingers nan
lthumb -0.9335148784309171 55.065595667796444
rclavicle -1.9270367151213095e-15 -2.1656815855584476e-16
rhumerus -35.669955980899765 -34.07574088282295 -67.18443597271774
rradius 18.923457097782098
rwrist 11.732387006928493
rhand -18.745450269790773 1.0
rfingers nan
rthumb 7.694345604087457 -7.399257849110285
22
root 0.37159127090874644 17.98431885925301 5.7272665042128015 -1.3907584155380728 -4.685986416250093 -7.154278453801538
lfemur -11.915501561872379 0.9441659043161517 -9.210707452222666
ltibia 66.5851964073497
lfoot -4.414413199695767 -1.6019227823203415
ltoes 0.554017204578535
rfemur -4.744496482053961 7.593274946848919 34.02541190996591
rtibia 13.033314637462112
rfoot -2.2298707320906743 -9.807806960713243
rtoes 9.435384342676361
lowerback 1.0 0.8584764498906606 2.7031445634481788
upperback 0.4017615652029959 1.8723973410958006 2.09632883922169
thorax -5.783947304750775 0.9031359094848816 0.09875093999544537
lowerneck -15.794042990032635 -2.831000398571803 -1.23795156789805
upperneck 23.858191319537557 -3.4281643126808405 -0.8805814108381418
head 10.2489951228537 -1.7899635346792402 -0.5117586425847234
lclavicle -1.9452412449808123e-15 -2.383366877421254e-16
lhumerus -32.06809924995577 2.777844038490948 83.00714634542298
lradius 19.544990218701972
lwrist 5.3289303365830065
lhand -27.667525127944916 23.85010970105619
lfingers nan
lthumb -0.6114878578413664 54.679514540701334
rclavicle -1.8863228068501346e-15 -1.8900551567107902e-16
rhumerus -32.87653162766815 -33.41732484426654 -68.65144435467639
rradius 19.70096134392832
rwrist 9.616337605628111
rhand -18.849822526328357 1.0
rfingers nan
rthumb 7.828249611540165 -7.039496878460537
